<svg width="16" height="16" viewBox="0 0 16 16" fill="none" xmlns="http://www.w3.org/2000/svg">
<path fill-rule="evenodd" clip-rule="evenodd" d="M1 4.62988V11.3701C1.00264 12.332 1.38592 13.2537 2.0661 13.9338C2.74629 14.614 3.66808 14.9974 4.63 15H11.37C12.3319 14.9974 13.2537 14.614 13.9339 13.9338C14.6141 13.2537 14.9974 12.332 15 11.3701V4.62988C14.9974 3.66796 14.6141 2.74635 13.9339 2.06616C13.2537 1.38598 12.3319 1.00264 11.37 1H4.63C3.66808 1.00264 2.74629 1.38598 2.0661 2.06616C1.38592 2.74635 1.00264 3.66796 1 4.62988ZM11 14H5C4.20435 14 3.44127 13.6839 2.87866 13.1213C2.31605 12.5587 2 11.7956 2 11V5C2 4.20435 2.31605 3.44127 2.87866 2.87866C3.44127 2.31605 4.20435 2 5 2H11C11.7956 2 12.5587 2.31605 13.1213 2.87866C13.6839 3.44127 14 4.20435 14 5V11C14 11.7956 13.6839 12.5587 13.1213 13.1213C12.5587 13.6839 11.7956 14 11 14Z" fill="white"/>
<path d="M12 9H9V12H7V9H4V7H7V4H9V7H12V9Z" fill="white"/>
</svg>
