<svg width="21" height="20" viewBox="0 0 21 20" fill="none" xmlns="http://www.w3.org/2000/svg">
<g clip-path="url(#clip0_401_5006)">
<path opacity="0.5" fill-rule="evenodd" clip-rule="evenodd" d="M10.1699 4.44995C9.89033 3.05761 9.3288 1.73732 8.5199 0.570068L8.12988 0.889893C8.81707 1.90438 9.31191 3.0366 9.58984 4.22998C9.01957 4.04887 8.42767 3.94456 7.82983 3.91992V0.72998H7.32983V3.91992C6.732 3.94456 6.1401 4.04887 5.56982 4.22998C5.84775 3.0366 6.34272 1.90438 7.02991 0.889893L6.63989 0.570068C5.83099 1.73732 5.26946 3.05761 4.98987 4.44995C3.85095 4.9436 2.87382 5.74759 2.16992 6.77002L2.58984 7.04004C3.17685 6.19873 3.95926 5.51243 4.86987 5.04004C4.71259 5.90136 4.62896 6.77438 4.61987 7.6499H2.37988V8.1499H4.61987C4.62896 9.02542 4.71259 9.89869 4.86987 10.76C3.96236 10.2831 3.18093 9.59765 2.58984 8.76001L2.16992 9.02002C2.87382 10.0424 3.85095 10.8464 4.98987 11.3401C5.25787 12.736 5.82039 14.0586 6.63989 15.22L7.02991 14.8999C6.3344 13.89 5.83872 12.7564 5.56982 11.5601C6.13868 11.7469 6.73137 11.8513 7.32983 11.8701V15.0601H7.82983V11.8701C8.42829 11.8513 9.02099 11.7469 9.58984 11.5601C9.42946 12.186 9.21877 12.7978 8.95984 13.3899L10.1199 11.54C10.1318 11.4723 10.1486 11.4055 10.1699 11.3401L10.2799 11.28L10.4999 10.9299V10.6001L10.2999 10.72C10.401 10.1042 10.4677 9.48334 10.4999 8.86011V6.86011C10.4701 6.23291 10.4 5.60817 10.2899 4.98999C10.7745 5.24148 11.2248 5.55395 11.6299 5.91992H12.3599C11.7313 5.29346 10.9878 4.79435 10.1699 4.44995V4.44995ZM7.32983 11.45C6.67616 11.4249 6.03107 11.2933 5.41992 11.0601C5.2327 10.1145 5.13223 9.15375 5.11987 8.18994H7.32983V11.45ZM7.32983 7.68994H5.11987C5.13223 6.72613 5.2327 5.7656 5.41992 4.82007C6.0319 4.58968 6.67652 4.4579 7.32983 4.42993V7.68994ZM7.82983 4.42993C8.48431 4.45614 9.12987 4.59147 9.73987 4.83008C9.92765 5.77215 10.0281 6.72941 10.0399 7.68994H7.82983V4.42993ZM9.73987 11.05C9.13047 11.2907 8.48457 11.4258 7.82983 11.45V8.18994H10.0399C10.0251 9.13375 9.92462 10.0743 9.73987 11V11.05Z" fill="white"/>
<path fill-rule="evenodd" clip-rule="evenodd" d="M1.89 5.15991L1.95995 7.05005C1.78523 7.05368 1.61311 7.09261 1.45396 7.16479C1.29482 7.23698 1.15199 7.34092 1.03417 7.46997C0.916336 7.59902 0.825987 7.75049 0.76854 7.91553C0.711093 8.08057 0.687707 8.25561 0.699937 8.42993C0.669698 9.0557 0.828028 9.67609 1.15428 10.2109C1.48054 10.7458 1.95978 11.1705 2.53001 11.4299L3.07994 13.0601L3.15001 13.1899C3.36001 13.4899 5.28001 16.0901 7.15001 16.0901H7.28001L7.92003 15.0901H7.81993H7.15001C6.01001 15.0901 4.50996 13.3999 3.96996 12.6699L3.28001 10.6699L2.91002 10.5701C2.51239 10.3873 2.18032 10.087 1.9586 9.70972C1.73689 9.33244 1.63619 8.89626 1.67003 8.45996C1.67003 8.20996 1.66996 8.06008 2.21996 8.08008L2.98998 8.51001L2.85997 5.16992C2.85997 2.59992 4.67997 0.929932 7.47997 0.929932C8.11254 0.895834 8.74554 0.988915 9.34154 1.20361C9.93754 1.41831 10.4844 1.75027 10.9499 2.17993C11.3329 2.57695 11.6314 3.0476 11.8274 3.56323C12.0233 4.07887 12.1126 4.62879 12.09 5.17993V6.04004H13.09V5.19995C13.1112 4.51591 12.9958 3.8346 12.7502 3.1958C12.5047 2.557 12.134 1.97362 11.66 1.47998C10.8584 0.704761 9.83342 0.201093 8.72997 0.0400391H6.26C5.02492 0.196264 3.89253 0.807492 3.08434 1.75439C2.27614 2.7013 1.85028 3.91563 1.89 5.15991V5.15991Z" fill="white"/>
<path d="M15.5 8V8.08008C15.5 8.27008 15.5 8.45012 15.5 8.62012V12.1499L15.6401 12.3799L19.49 18.9299C19.4677 18.9522 19.4412 18.9699 19.412 18.9819C19.3829 18.9939 19.3515 19.0001 19.32 19H8.80009C8.76854 19.0001 8.73722 18.9939 8.70805 18.9819C8.67888 18.9699 8.65239 18.9522 8.63005 18.9299L12.48 12.3799L12.62 12.1499V8.62012C12.62 8.45012 12.62 8.27008 12.62 8.08008V8H15.5ZM16.0401 7H12.0401C11.3501 7 11.61 7.94012 11.61 8.62012V11.8799L7.55009 18.76C7.54876 18.9232 7.57992 19.085 7.64176 19.2361C7.70361 19.3871 7.79491 19.5245 7.91032 19.6399C8.02573 19.7553 8.16284 19.8464 8.31388 19.9082C8.46493 19.97 8.62687 20.0013 8.79008 20H19.3101C19.4733 20.0013 19.6351 19.97 19.7862 19.9082C19.9372 19.8464 20.0744 19.7553 20.1899 19.6399C20.3053 19.5245 20.3966 19.3871 20.4584 19.2361C20.5203 19.085 20.5514 18.9232 20.5501 18.76L16.49 11.8799V8.62012C16.49 7.94012 16.7501 7 16.0601 7H16.0401Z" fill="white"/>
<path opacity="0.5" d="M12.06 15L10.29 18H17.71L15.94 15H12.06Z" fill="white"/>
</g>
<defs>
<clipPath id="clip0_401_5006">
<rect width="20" height="20" fill="white" transform="translate(0.5)"/>
</clipPath>
</defs>
</svg>
