<svg width="16" height="16" viewBox="0 0 16 16" fill="none" xmlns="http://www.w3.org/2000/svg">
<g clip-path="url(#clip0_388_3674)">
<path d="M8 7.5C9.933 7.5 11.5 5.933 11.5 4C11.5 2.067 9.933 0.5 8 0.5C6.067 0.5 4.5 2.067 4.5 4C4.5 5.933 6.067 7.5 8 7.5Z" fill="white"/>
<path d="M3 8.00174C2.7844 7.98901 2.57046 8.04641 2.3902 8.16538C2.20994 8.28435 2.07306 8.45847 2 8.66171L0 14.7118V16.0017H2L3 13.1217V8.00174Z" fill="white"/>
<path d="M14 8.68135C13.9304 8.47437 13.795 8.29584 13.6144 8.17305C13.4339 8.05026 13.2181 7.98998 13 8.00136V13.1214L14 16.0014H16V14.8513L14 8.68135Z" fill="white"/>
<path d="M4 8V12L4.5 16H11.5L12 12V8H4Z" fill="white"/>
</g>
<defs>
<clipPath id="clip0_388_3674">
<rect width="16" height="16" fill="white"/>
</clipPath>
</defs>
</svg>
