<svg width="16" height="16" viewBox="0 0 16 16" fill="none" xmlns="http://www.w3.org/2000/svg">
<path d="M13.8942 0.959961C13.9675 1.19597 13.9979 1.44319 13.9841 1.68994V7.59985L14.9823 7C15.0072 7.46296 14.8905 7.92253 14.648 8.31738C14.4054 8.71223 14.0485 9.02355 13.6247 9.20996L13.0856 9.45996V10.05V10.78L12.5964 12.47C12.267 12.95 10.7397 14.96 8.53351 14.96H7.675C6.86793 14.8889 6.08791 14.6328 5.39549 14.2114C4.70307 13.7901 4.1168 13.2148 3.6819 12.53L3.10282 10.77V10.04V9.44995L2.56383 9.19995C2.10291 9.03677 1.70467 8.73291 1.42529 8.33105C1.14591 7.9292 0.999411 7.44961 1.00646 6.95996L2.00474 7.41992V1.70996C1.99448 1.46655 2.03884 1.22398 2.13452 1H13.8942V0.959961ZM13.9841 0H2.00474C1.38581 0 1.00646 0.739961 1.00646 1.70996V5.84985C0.886609 5.79515 0.758315 5.76148 0.62711 5.75C0.317644 5.75 0.00818355 5.98988 0.00818355 6.87988C-0.0392895 7.55756 0.120595 8.23362 0.466621 8.81787C0.812646 9.40213 1.3283 9.86682 1.94478 10.1499L2.00474 11L2.66363 13C2.66363 13 4.4405 16 7.58507 16H8.44357C11.5482 16 13.435 12.9399 13.435 12.9399L13.9941 11L14.0539 10.1599C14.6722 9.88206 15.1901 9.42007 15.5367 8.83667C15.8833 8.25327 16.0417 7.57685 15.9906 6.8999C15.9906 6.0099 15.7111 5.77002 15.3317 5.77002C15.2124 5.77682 15.0963 5.81089 14.9923 5.86987V1.72998C14.9923 0.72998 14.7428 0 13.9941 0H13.9841Z" fill="white"/>
<path d="M7.0083 6.07007C6.79363 5.74181 6.50774 5.46599 6.17188 5.26343C5.83601 5.06087 5.45886 4.93662 5.06836 4.8999C4.67786 4.93662 4.30059 5.06087 3.96472 5.26343C3.62886 5.46599 3.34297 5.74181 3.1283 6.07007L2.99829 6.27002L3.1283 6.46997C3.34024 6.8016 3.62529 7.08039 3.96155 7.28491C4.2978 7.48944 4.67641 7.61421 5.06836 7.6499C5.45972 7.61205 5.83741 7.48631 6.17334 7.28198C6.50927 7.07765 6.7947 6.80008 7.0083 6.46997L7.13831 6.27002L7.0083 6.07007ZM5.06836 6.90991C4.84128 6.88918 4.62092 6.82158 4.42126 6.71143C4.22161 6.60127 4.04696 6.45106 3.90833 6.27002C4.04872 6.0917 4.22402 5.94377 4.42346 5.83545C4.62291 5.72713 4.84234 5.66057 5.06836 5.63989C5.29395 5.66225 5.5127 5.7297 5.71191 5.83789C5.91113 5.94608 6.08669 6.09297 6.22827 6.27002C6.08993 6.44903 5.91668 6.59799 5.71899 6.70801C5.52131 6.81802 5.30329 6.88669 5.07825 6.90991H5.06836ZM6.60828 9.44995C6.7559 9.6945 6.96208 9.89855 7.20825 10.0435C7.45442 10.1884 7.73285 10.2696 8.01831 10.28C8.30549 10.2713 8.58594 10.1906 8.83398 10.0457C9.08203 9.90067 9.28982 9.69589 9.43835 9.44995C9.43835 9.44995 8.49831 9.52002 8.01831 9.52002C7.53831 9.52002 6.61829 9.44995 6.61829 9.44995H6.60828ZM5.30835 10.28C5.67153 9.77989 6.18742 9.41132 6.77832 9.22998L6.61829 8.51001C5.86328 8.73097 5.20016 9.19064 4.72827 9.82007C4.20827 10.4951 3.86459 11.2888 3.72827 12.1299C3.72827 12.1299 4.61836 11.18 5.31836 10.28H5.30835ZM10.4983 12C9.75573 11.5131 8.88622 11.2558 7.99829 11.26C7.11036 11.2558 6.24085 11.5131 5.49829 12L5.20825 12.21L5.40833 12.5C5.70329 12.925 6.08823 13.2798 6.53589 13.5391C6.98355 13.7983 7.48288 13.9557 7.99829 14C8.51248 13.9563 9.01054 13.7992 9.45667 13.5398C9.90279 13.2804 10.2859 12.9252 10.5782 12.5L10.7883 12.21L10.4983 12ZM7.99829 13.26C7.66829 13.236 7.34628 13.1467 7.05103 12.9973C6.75577 12.848 6.49318 12.6415 6.27832 12.3899C6.8147 12.1301 7.40232 11.9935 7.99829 11.99C8.59403 11.9955 9.18122 12.132 9.71826 12.3899C9.50456 12.6404 9.24352 12.8463 8.95007 12.9956C8.65662 13.1449 8.33658 13.2347 8.0083 13.26H7.99829ZM12.2683 12.1299C12.132 11.2888 11.7883 10.4951 11.2683 9.82007C10.7964 9.19064 10.1333 8.73097 9.3783 8.51001L9.21826 9.22998C9.80916 9.41132 10.3252 9.77989 10.6884 10.28C11.3984 11.18 12.2783 12.1299 12.2783 12.1299H12.2683ZM12.8683 6.07007C12.6536 5.74181 12.3677 5.46599 12.0319 5.26343C11.696 5.06087 11.3188 4.93662 10.9283 4.8999C10.5384 4.93872 10.162 5.06399 9.82642 5.26636C9.49086 5.46873 9.20455 5.7433 8.98828 6.07007L8.85828 6.27002L8.98828 6.46997C9.20188 6.80008 9.48731 7.07765 9.82324 7.28198C10.1592 7.48631 10.537 7.61205 10.9283 7.6499C11.3197 7.61205 11.6974 7.48631 12.0333 7.28198C12.3693 7.07765 12.6547 6.80008 12.8683 6.46997L12.9983 6.27002L12.8683 6.07007ZM10.9283 6.90991C10.7016 6.88801 10.4816 6.82003 10.2821 6.70996C10.0826 6.5999 9.90778 6.45018 9.76831 6.27002C9.90989 6.09297 10.0855 5.94608 10.2847 5.83789C10.4839 5.7297 10.7028 5.66225 10.9283 5.63989C11.1539 5.66225 11.3727 5.7297 11.5719 5.83789C11.7711 5.94608 11.9467 6.09297 12.0883 6.27002C11.9499 6.44903 11.7767 6.59799 11.579 6.70801C11.3813 6.81802 11.1634 6.88669 10.9384 6.90991H10.9283Z" fill="white"/>
</svg>
