<svg width="16" height="16" viewBox="0 0 16 16" fill="none" xmlns="http://www.w3.org/2000/svg">
<g clip-path="url(#clip0_388_3475)">
<path d="M9 4H2C1.44772 4 1 4.44772 1 5V11C1 11.5523 1.44772 12 2 12H9C9.55229 12 10 11.5523 10 11V5C10 4.44772 9.55229 4 9 4Z" fill="white"/>
<path opacity="0.5" d="M9 0H2C1.73478 0 1.48038 0.105432 1.29285 0.292969C1.10531 0.480505 1 0.734784 1 1V3C1 2.73478 1.10531 2.48051 1.29285 2.29297C1.48038 2.10543 1.73478 2 2 2H9C9.26522 2 9.51962 2.10543 9.70715 2.29297C9.89469 2.48051 10 2.73478 10 3V1C10 0.734784 9.89469 0.480505 9.70715 0.292969C9.51962 0.105432 9.26522 0 9 0Z" fill="white"/>
<path opacity="0.5" d="M9 16H2C1.73478 16 1.48038 15.8946 1.29285 15.707C1.10531 15.5195 1 15.2652 1 15V13C1 13.2652 1.10531 13.5195 1.29285 13.707C1.48038 13.8946 1.73478 14 2 14H9C9.26522 14 9.51962 13.8946 9.70715 13.707C9.89469 13.5195 10 13.2652 10 13V15C10 15.2652 9.89469 15.5195 9.70715 15.707C9.51962 15.8946 9.26522 16 9 16Z" fill="white"/>
<path d="M11 7.44V8.56001L15 11.37V4.63L11 7.44Z" fill="white"/>
<path opacity="0.5" d="M11 12.07V13.19L15 16V14L11.63 11.63L11 12.07Z" fill="white"/>
<path opacity="0.5" d="M11 2.81V3.93L11.63 4.37L15 2V0L11 2.81Z" fill="white"/>
</g>
<defs>
<clipPath id="clip0_388_3475">
<rect width="16" height="16" fill="white"/>
</clipPath>
</defs>
</svg>
