<svg width="16" height="16" viewBox="0 0 16 16" fill="none" xmlns="http://www.w3.org/2000/svg">
<path d="M0 2V14C0 14.2652 0.105371 14.5196 0.292908 14.7071C0.480444 14.8946 0.734784 15 1 15H15C15.2652 15 15.5196 14.8946 15.7071 14.7071C15.8946 14.5196 16 14.2652 16 14V2C16 1.73478 15.8946 1.48044 15.7071 1.29291C15.5196 1.10537 15.2652 1 15 1H1C0.734784 1 0.480444 1.10537 0.292908 1.29291C0.105371 1.48044 0 1.73478 0 2ZM6 3C6.68691 3 7.3457 3.27289 7.83142 3.75861C8.31714 4.24433 8.59003 4.90312 8.59003 5.59003C8.59134 5.93099 8.52532 6.26884 8.39575 6.58423C8.26618 6.89962 8.0756 7.18629 7.83496 7.42786C7.59433 7.66942 7.30836 7.8611 6.99347 7.99188C6.67858 8.12267 6.34097 8.19 6 8.19C5.65903 8.19 5.32142 8.12267 5.00653 7.99188C4.69164 7.8611 4.40567 7.66942 4.16504 7.42786C3.9244 7.18629 3.73382 6.89962 3.60425 6.58423C3.47468 6.26884 3.40866 5.93099 3.40997 5.59003C3.40997 4.90312 3.68286 4.24433 4.16858 3.75861C4.6543 3.27289 5.31309 3 6 3ZM10.26 14H1.73999V13.29C1.70694 12.7205 1.79423 12.1505 1.99622 11.6171C2.1982 11.0836 2.51037 10.5987 2.91229 10.194C3.31422 9.78922 3.7969 9.47367 4.32892 9.26794C4.86094 9.06222 5.43033 8.97094 6 9C6.56701 8.97131 7.13373 9.06187 7.66357 9.26581C8.19342 9.46974 8.6746 9.78251 9.07605 10.184C9.4775 10.5854 9.79027 11.0666 9.9942 11.5964C10.1981 12.1263 10.2887 12.693 10.26 13.26V14ZM15 9H11V8H15V9ZM15 7H11V6H15V7ZM15 5H11V4H15V5Z" fill="white"/>
</svg>
