<svg width="16" height="16" viewBox="0 0 16 16" fill="none" xmlns="http://www.w3.org/2000/svg">
<g clip-path="url(#clip0_388_3672)">
<path fill-rule="evenodd" clip-rule="evenodd" d="M15.6699 4.59004L11.4099 0.330026C11.258 0.197656 11.0793 0.0996252 10.886 0.0426721C10.6927 -0.0142809 10.4894 -0.0288309 10.2899 8.57096e-06H5.70996C5.51062 -0.0250066 5.30826 -0.00861743 5.11554 0.0481653C4.92282 0.104948 4.7439 0.200919 4.58997 0.330026L0.329956 4.59004C0.119245 4.805 0.0012207 5.09401 0.0012207 5.39503C0.0012207 5.69604 0.119245 5.98505 0.329956 6.20002C0.435955 6.30705 0.562081 6.39198 0.701111 6.44996C0.840141 6.50794 0.989317 6.53785 1.13995 6.53785C1.29059 6.53785 1.43971 6.50794 1.57874 6.44996C1.71777 6.39198 1.84395 6.30705 1.94995 6.20002L4.94995 3.20002V15C4.94995 15.2652 5.05532 15.5196 5.24286 15.7071C5.4304 15.8946 5.68473 16 5.94995 16C6.21517 16 6.46951 15.8946 6.65704 15.7071C6.84458 15.5196 6.94995 15.2652 6.94995 15V9.00001H8.94995V15C8.94995 15.2652 9.05532 15.5196 9.24286 15.7071C9.4304 15.8946 9.68473 16 9.94995 16C10.2152 16 10.4695 15.8946 10.657 15.7071C10.8446 15.5196 10.95 15.2652 10.95 15V3.20002L13.95 6.20002C14.056 6.30705 14.1821 6.39198 14.3211 6.44996C14.4601 6.50794 14.6093 6.53785 14.7599 6.53785C14.9106 6.53785 15.0597 6.50794 15.1987 6.44996C15.3378 6.39198 15.4639 6.30705 15.5699 6.20002C15.7945 5.99845 15.9309 5.71666 15.9496 5.41547C15.9683 5.11429 15.8678 4.81785 15.6699 4.59004Z" fill="white"/>
</g>
<defs>
<clipPath id="clip0_388_3672">
<rect width="16" height="16" fill="white"/>
</clipPath>
</defs>
</svg>
