<svg width="16" height="16" viewBox="0 0 16 16" fill="none" xmlns="http://www.w3.org/2000/svg">
<path fill-rule="evenodd" clip-rule="evenodd" d="M13.4001 7.49999C13.3001 7.49999 13.1001 7.59999 13.1001 7.59999L13.2001 5.09999C13.2001 2.39999 11.4001 0.299988 8.00009 0.299988C4.60009 0.299988 2.80009 2.49999 2.80009 5.09999L2.90009 7.59999C2.90009 7.59999 2.7001 7.49999 2.6001 7.49999C2.0001 7.49999 1.6001 7.69999 1.6001 8.39999C1.6001 9.99999 2.50009 10.7 3.20009 11L3.40009 11.1L4.00009 13C4.00009 13 6.00009 15.7 7.70009 15.7H8.40009C10.1001 15.7 12.1001 13 12.1001 13L12.7001 11.1L12.9001 11C13.6001 10.7 14.5001 9.99999 14.5001 8.39999C14.4001 7.69999 14.0001 7.49999 13.4001 7.49999ZM7.1001 11.2C7.2001 11.1 7.40009 11.2 7.40009 11.3C7.40009 11.3 7.60009 11.6 8.00009 11.6C8.40009 11.6 8.6001 11.3 8.6001 11.3C8.7001 11.2 8.80009 11.1 8.90009 11.2C9.00009 11.3 9.10009 11.4 9.00009 11.5C9.00009 11.5 8.60009 12.1 8.00009 12.1C7.40009 12.1 7.00009 11.6 7.00009 11.5C7.00009 11.4 7.0001 11.3 7.1001 11.2ZM12.0001 7.69999C12.0001 7.69999 11.4001 7.59999 10.9001 7.59999C10.4001 7.59999 10.5001 7.59999 9.80009 7.69999C9.70009 7.69999 9.50009 7.69999 9.50009 7.59999C9.50009 7.29999 9.80009 7.29999 9.80009 7.29999C9.80009 7.29999 10.3001 7.29999 10.9001 7.19999C11.5001 7.19999 12.2001 7.39999 12.2001 7.39999C12.3001 7.39999 12.3001 7.49999 12.3001 7.59999C12.3001 7.59999 12.3001 7.69999 12.2001 7.69999C12.1001 7.69999 12.0001 7.69999 12.0001 7.69999ZM3.90009 7.69999C3.90009 7.69999 3.80009 7.59999 3.90009 7.69999C3.80009 7.49999 3.80009 7.39999 3.90009 7.39999C3.90009 7.39999 4.60009 7.09999 5.20009 7.19999C5.80009 7.19999 6.30009 7.29999 6.30009 7.29999C6.30009 7.29999 6.6001 7.29999 6.6001 7.59999C6.6001 7.69999 6.40009 7.69999 6.30009 7.69999C5.70009 7.69999 5.70009 7.69999 5.20009 7.59999C4.60009 7.59999 4.1001 7.69999 4.1001 7.69999C4.0001 7.69999 3.90009 7.69999 3.90009 7.69999ZM7.00009 8.79999C6.90009 8.89999 6.80009 8.99999 6.70009 8.89999C6.70009 8.89999 6.50009 8.79999 6.30009 8.79999C6.40009 8.89999 6.40009 8.99999 6.40009 9.09999C6.40009 9.39999 6.10009 9.69999 5.80009 9.69999C5.50009 9.69999 5.20009 9.39999 5.20009 9.09999C5.20009 8.99999 5.20009 8.89999 5.30009 8.79999C4.80009 8.89999 4.50009 9.09999 4.50009 9.09999H4.40009C4.30009 9.09999 4.20009 9.09999 4.20009 8.99999C4.10009 8.89999 4.20009 8.79999 4.30009 8.69999C4.30009 8.69999 4.90009 8.29999 5.70009 8.29999C6.50009 8.29999 6.90009 8.49999 7.00009 8.59999C7.10009 8.59999 7.10009 8.69999 7.00009 8.79999ZM9.50009 13.3C9.50009 13.3 8.90009 13.7 8.00009 13.7C7.10009 13.7 6.50009 13.3 6.50009 13.3C6.40009 13.2 6.40009 13.1 6.50009 13C6.60009 12.9 6.70009 12.9 6.80009 13C7.30009 13.1 8.80009 13.1 9.30009 13C9.40009 13 9.5001 12.9 9.6001 13C9.6001 13.1 9.60009 13.2 9.50009 13.3ZM11.8001 8.89999C11.8001 8.99999 11.7001 8.99999 11.6001 8.99999H11.5001C11.5001 8.99999 11.2001 8.79999 10.7001 8.69999C10.8001 8.79999 10.8001 8.89999 10.8001 8.99999C10.8001 9.29999 10.5001 9.59999 10.2001 9.59999C9.90009 9.59999 9.6001 9.29999 9.6001 8.99999C9.6001 8.89999 9.60009 8.79999 9.70009 8.69999C9.40009 8.79999 9.30009 8.79999 9.30009 8.79999C9.20009 8.89999 9.00009 8.79999 9.00009 8.69999C8.90009 8.59999 9.0001 8.49999 9.1001 8.39999C9.1001 8.39999 9.60009 8.09999 10.4001 8.09999C11.2001 8.09999 11.8001 8.49999 11.8001 8.49999C11.8001 8.69999 11.9001 8.79999 11.8001 8.89999Z" fill="white"/>
</svg>
