<svg width="16" height="16" viewBox="0 0 16 16" fill="none" xmlns="http://www.w3.org/2000/svg">
<g clip-path="url(#clip0_388_3718)">
<path d="M7.99995 1C8.60315 0.966413 9.20707 1.05249 9.77686 1.2533C10.3467 1.4541 10.8711 1.76563 11.32 2.16998C11.6751 2.54193 11.952 2.98148 12.134 3.46246C12.3161 3.94345 12.3998 4.45606 12.38 4.96997L12.2999 7.58002V9.26001L13.6699 8.57001C13.684 8.9142 13.5968 9.25497 13.419 9.55005C13.2413 9.84513 12.9808 10.0815 12.6699 10.23H12.5499L12.0599 10.38L11.9 10.86L11.28 12.68C10.56 13.68 9.20995 14.96 8.37995 14.96H7.66993C6.83993 14.96 5.47995 13.63 4.74995 12.66L4.13996 10.84L3.96992 10.35L3.45997 10.21H3.34992C3.03828 10.0598 2.77752 9.82158 2.5998 9.52478C2.42207 9.22798 2.33517 8.88561 2.34992 8.53998L3.76997 9.32001L3.69996 7.56L3.59992 4.98999C3.59992 3.05999 4.75994 0.98999 7.98994 0.98999L7.99995 1ZM7.98994 -0.0100098C4.43994 -0.0100098 2.59992 2.23999 2.59992 4.98999L2.69996 7.59003C2.61305 7.54457 2.51774 7.51733 2.41993 7.51001C1.80993 7.51001 1.34992 7.71001 1.34992 8.45001C1.31165 9.01042 1.44529 9.56918 1.73298 10.0516C2.02066 10.5341 2.44874 10.9173 2.95997 11.15L3.15992 11.21L3.82996 13.21C3.82996 13.21 5.82996 16.04 7.63996 16.04H8.34992C10.1299 16.04 12.15 13.22 12.15 13.22L12.82 11.22L12.9999 11.16C13.5139 10.9307 13.9444 10.5483 14.2326 10.065C14.5208 9.58169 14.6526 9.02113 14.6099 8.46002C14.6099 7.72002 14.1199 7.52002 13.6099 7.52002C13.5047 7.52827 13.4024 7.55892 13.3099 7.60999L13.4 5.01001C13.4 2.25001 11.58 0.0100098 8.01997 0.0100098L7.98994 -0.0100098Z" fill="white"/>
<path opacity="0.5" d="M7.99988 2C8.47157 1.96597 8.94531 2.02628 9.39343 2.17737C9.84156 2.32846 10.2551 2.56732 10.6099 2.88C11.1326 3.44757 11.4094 4.19893 11.3799 4.96997L11.2999 7.53998L11.2198 9.71997L10.9299 10.58L10.3699 12.24C9.84825 12.9734 9.16365 13.5759 8.36987 14H7.68988C6.86878 13.5869 6.16407 12.975 5.63989 12.22L5.06989 10.56L4.80988 9.78998L4.71985 7.52002L4.61987 4.96002C4.61987 3.08002 5.86989 1.96002 8.00989 1.96002" fill="white"/>
</g>
<defs>
<clipPath id="clip0_388_3718">
<rect width="16" height="16" fill="white"/>
</clipPath>
</defs>
</svg>
