<svg width="21" height="20" viewBox="0 0 21 20" fill="none" xmlns="http://www.w3.org/2000/svg">
<path fill-rule="evenodd" clip-rule="evenodd" d="M5.50003 15.17V16H8.50003V13H9.50003C9.50003 13 9.50003 12 11 10.5L11.29 10.23C11.0281 10.1947 10.7643 10.1747 10.5 10.17C9.83433 10.1355 9.1688 10.2412 8.54654 10.4803C7.92429 10.7193 7.35921 11.0865 6.88785 11.5579C6.41649 12.0293 6.04934 12.5943 5.81028 13.2166C5.57121 13.8388 5.46553 14.5042 5.50003 15.17V15.17Z" fill="white"/>
<path fill-rule="evenodd" clip-rule="evenodd" d="M14.83 1H6.16998C4.93142 1 3.74359 1.49213 2.8678 2.36792C1.992 3.24371 1.5 4.43136 1.5 5.66992V14.3301C1.5 15.5686 1.992 16.7563 2.8678 17.6321C3.74359 18.5079 4.93142 19 6.16998 19H11.5C11.33 18.85 11.15 18.69 10.96 18.5C10.77 18.31 10.64 18.16 10.5 18H6.5C5.43913 18 4.42172 17.5785 3.67157 16.8284C2.92142 16.0782 2.5 15.0609 2.5 14V6C2.5 4.93913 2.92142 3.92178 3.67157 3.17163C4.42172 2.42149 5.43913 2 6.5 2H14.5C15.5609 2 16.5783 2.42149 17.3284 3.17163C18.0786 3.92178 18.5 4.93913 18.5 6V10C18.66 10.14 18.83 10.29 19 10.46C19.17 10.63 19.36 10.83 19.5 11V5.62988C19.4895 4.39827 18.9928 3.22092 18.1181 2.35376C17.2434 1.4866 16.0617 0.999955 14.83 1V1Z" fill="white"/>
<path d="M10.5 9.17996C12.1789 9.17996 13.54 7.81891 13.54 6.13997C13.54 4.46102 12.1789 3.09998 10.5 3.09998C8.82102 3.09998 7.45996 4.46102 7.45996 6.13997C7.45996 7.81891 8.82102 9.17996 10.5 9.17996Z" fill="white"/>
<path d="M20.5 14.8701V14.1299H15.37V11.3701C16.074 11.4512 16.7299 11.768 17.231 12.269C17.732 12.7701 18.0489 13.4259 18.13 14.1299H19.13C19.0445 13.1614 18.6209 12.2541 17.9335 11.5667C17.246 10.8792 16.3385 10.4556 15.37 10.3701V9H14.63V10.3701C13.6615 10.4556 12.754 10.8792 12.0665 11.5667C11.3791 12.2541 10.9555 13.1614 10.87 14.1299H11.87C11.9511 13.4259 12.268 12.7701 12.769 12.269C13.2701 11.768 13.926 11.4512 14.63 11.3701V14.1299H9.5V14.8701H14.63V17.6299C13.926 17.5488 13.2701 17.232 12.769 16.731C12.268 16.2299 11.9511 15.5741 11.87 14.8701H10.87C10.9555 15.8386 11.3791 16.7459 12.0665 17.4333C12.754 18.1208 13.6615 18.5444 14.63 18.6299V20H15.37V18.6299C16.3385 18.5444 17.246 18.1208 17.9335 17.4333C18.6209 16.7459 19.0445 15.8386 19.13 14.8701H18.13C18.0489 15.5741 17.732 16.2299 17.231 16.731C16.7299 17.232 16.074 17.5488 15.37 17.6299V14.8701H20.5Z" fill="white"/>
</svg>
