<svg width="21" height="20" viewBox="0 0 21 20" fill="none" xmlns="http://www.w3.org/2000/svg">
<path d="M20.5 16.25H16.75V20H14.25V16.25H10.5V13.75H14.25V10H16.75V13.75H20.5V16.25Z" fill="white"/>
<path opacity="0.5" d="M18 0H3C2.33696 0 1.70111 0.263276 1.23227 0.732117C0.763428 1.20096 0.5 1.83696 0.5 2.5V17.5C0.50252 17.9582 0.630957 18.4071 0.871246 18.7973C1.11154 19.1875 1.45447 19.504 1.86253 19.7125C2.08653 17.8576 2.94392 16.1369 4.2899 14.841C5.63588 13.5451 7.38791 12.7536 9.25 12.6001V12.5H13V10.925C12.2334 11.3455 11.3743 11.5689 10.5 11.575C9.08772 11.575 7.7333 11.0139 6.73466 10.0153C5.73603 9.01663 5.17499 7.66228 5.17499 6.25C5.17499 4.83772 5.73603 3.48337 6.73466 2.48474C7.7333 1.48611 9.08772 0.924988 10.5 0.924988C11.9123 0.924988 13.2667 1.48611 14.2653 2.48474C15.264 3.48337 15.825 4.83772 15.825 6.25C15.8189 7.12432 15.5955 7.98341 15.175 8.75H18V12.5H20.5V2.5C20.5 1.83696 20.2366 1.20096 19.7677 0.732117C19.2989 0.263276 18.663 0 18 0Z" fill="white"/>
</svg>
